<?xml version="1.0" encoding="utf-8"?>
<!-- Generator: Adobe Illustrator 16.0.0, SVG Export Plug-In . SVG Version: 6.00 Build 0)  -->
<!DOCTYPE svg PUBLIC "-//W3C//DTD SVG 1.1//EN" "http://www.w3.org/Graphics/SVG/1.1/DTD/svg11.dtd">
<svg version="1.1" xmlns="http://www.w3.org/2000/svg" xmlns:xlink="http://www.w3.org/1999/xlink" x="0px" y="0px" width="128px"
	 height="128px" viewBox="0 0 128 128" enable-background="new 0 0 128 128" xml:space="preserve">
<g id="Frame">
	<path id="Frame_x5F_128" fill="#838BC5" d="M58,6h-6c-0.335,0-0.664,0.084-0.958,0.244l-44,24C6.399,30.594,6,31.27,6,32v64
		c0,0.73,0.399,1.406,1.042,1.756l44,24C51.336,121.916,51.665,122,52,122h6c1.104,0,2-0.895,2-2V8C60,6.895,59.104,6,58,6L58,6z
		 M76,6h-6c-1.104,0-2,0.895-2,2v112c0,1.105,0.896,2,2,2h6c0.335,0,0.664-0.084,0.958-0.244l44-24C121.601,97.406,122,96.73,122,96
		V32c0-0.73-0.399-1.406-1.042-1.756l-44-24C76.664,6.084,76.335,6,76,6L76,6z"/>
</g>
<g id="FadeR">
	<linearGradient id="FadeR_x5F_128_1_" gradientUnits="userSpaceOnUse" x1="76" y1="64" x2="120" y2="64">
		<stop  offset="0" style="stop-color:#F2F2F2;stop-opacity:0.7"/>
		<stop  offset="1" style="stop-color:#F2F2F2;stop-opacity:0.5"/>
	</linearGradient>
	<path id="FadeR_x5F_128" fill="url(#FadeR_x5F_128_1_)" d="M120,32v64l-44,24V8L120,32z"/>
</g>
<g id="FadeL">
	<linearGradient id="FadeL_x5F_128_1_" gradientUnits="userSpaceOnUse" x1="8" y1="64" x2="52" y2="64">
		<stop  offset="0" style="stop-color:#F2F2F2;stop-opacity:0.5"/>
		<stop  offset="1" style="stop-color:#F2F2F2;stop-opacity:0.7"/>
	</linearGradient>
	<path id="FadeL_x5F_128" fill="url(#FadeL_x5F_128_1_)" d="M52,120L8,96V32L52,8V120z"/>
</g>
<g id="Edge">
	<path id="Edge_x5F_128" opacity="0.3" fill="#F2F2F2" d="M52,8h6v112h-6V8z M76,120h-6V8h6V120z"/>
</g>
<g id="PlateShadow">
	<linearGradient id="Shadow_x5F_128_1_" gradientUnits="userSpaceOnUse" x1="63.9995" y1="42" x2="63.9995" y2="86">
		<stop  offset="0" style="stop-color:#909090"/>
		<stop  offset="1" style="stop-color:#404040"/>
	</linearGradient>
	<path id="Shadow_x5F_128" fill="url(#Shadow_x5F_128_1_)" d="M52,86H24c-3.313,0-6-2.688-6-6V48c0-3.313,2.687-6,6-6h28V86z
		 M110,48v32c0,3.313-2.687,6-6,6H76V42h28C107.313,42,110,44.688,110,48z"/>
</g>
<g id="Border">
	<path id="Border_x5F_128" fill="#FFFFFF" d="M108,48v32c0,2.209-1.791,4-4,4H76V44h28C106.209,44,108,45.791,108,48z M52,84H24
		c-2.209,0-4-1.791-4-4V48c0-2.209,1.791-4,4-4h28V84z"/>
</g>
<g id="Old">
	<linearGradient id="Old_x5F_128_1_" gradientUnits="userSpaceOnUse" x1="38" y1="48" x2="38" y2="80">
		<stop  offset="0" style="stop-color:#FEEDEA"/>
		<stop  offset="0.48" style="stop-color:#FBD0CD"/>
		<stop  offset="0.52" style="stop-color:#FAC2BF"/>
		<stop  offset="1" style="stop-color:#F7A7A7"/>
	</linearGradient>
	<path id="Old_x5F_128" fill="url(#Old_x5F_128_1_)" d="M52,80H24V48h28V80z"/>
</g>
<g id="New">
	<linearGradient id="New_x5F_128_1_" gradientUnits="userSpaceOnUse" x1="90" y1="48" x2="90" y2="80">
		<stop  offset="0" style="stop-color:#DDE5F4"/>
		<stop  offset="0.48" style="stop-color:#B1C2E4"/>
		<stop  offset="0.52" style="stop-color:#9BB1DC"/>
		<stop  offset="1" style="stop-color:#7696CD"/>
	</linearGradient>
	<path id="New_x5F_128" fill="url(#New_x5F_128_1_)" d="M104,80H76V48h28V80z"/>
</g>
</svg>
