<?xml version="1.0" encoding="utf-8"?>
<!-- Generator: Adobe Illustrator 16.0.0, SVG Export Plug-In . SVG Version: 6.00 Build 0)  -->
<!DOCTYPE svg PUBLIC "-//W3C//DTD SVG 1.1//EN" "http://www.w3.org/Graphics/SVG/1.1/DTD/svg11.dtd">
<svg version="1.1" xmlns="http://www.w3.org/2000/svg" xmlns:xlink="http://www.w3.org/1999/xlink" x="0px" y="0px" width="256px"
	 height="256px" viewBox="0 0 256 256" enable-background="new 0 0 256 256" xml:space="preserve">
<g id="Frame">
	<path id="Frame_x5F_256" fill="#838BC5" d="M116,12h-12c-0.672,0-1.328,0.168-1.914,0.488l-88,48C12.797,61.189,12,62.537,12,64
		v128c0,1.463,0.797,2.811,2.086,3.512l88,48c0.586,0.32,1.242,0.488,1.914,0.488h12c2.211,0,4-1.791,4-4V16
		C120,13.791,118.211,12,116,12L116,12z M152,12h-12c-2.211,0-4,1.791-4,4v224c0,2.209,1.789,4,4,4h12
		c0.672,0,1.328-0.168,1.914-0.488l88-48c1.289-0.701,2.086-2.049,2.086-3.512V64c0-1.463-0.797-2.811-2.086-3.512l-88-48
		C153.328,12.168,152.672,12,152,12L152,12z"/>
</g>
<g id="FadeR">
	<linearGradient id="FadeR_x5F_256_1_" gradientUnits="userSpaceOnUse" x1="152" y1="128" x2="240" y2="128">
		<stop  offset="0" style="stop-color:#F2F2F2;stop-opacity:0.7"/>
		<stop  offset="1" style="stop-color:#F2F2F2;stop-opacity:0.5"/>
	</linearGradient>
	<path id="FadeR_x5F_256" fill="url(#FadeR_x5F_256_1_)" d="M240,64v128l-88,48V16L240,64z"/>
</g>
<g id="FadeL">
	<linearGradient id="FadeL_x5F_256_1_" gradientUnits="userSpaceOnUse" x1="16" y1="128" x2="104" y2="128">
		<stop  offset="0" style="stop-color:#F2F2F2;stop-opacity:0.5"/>
		<stop  offset="1" style="stop-color:#F2F2F2;stop-opacity:0.7"/>
	</linearGradient>
	<path id="FadeL_x5F_256" fill="url(#FadeL_x5F_256_1_)" d="M104,240l-88-48V64l88-48V240z"/>
</g>
<g id="Edge">
	<path id="Edge_x5F_256" opacity="0.3" fill="#F2F2F2" d="M104,16h12v224h-12V16z M152,240h-12V16h12V240z"/>
</g>
<g id="PlateShadow">
	<linearGradient id="Shadow_x5F_256_1_" gradientUnits="userSpaceOnUse" x1="128" y1="84" x2="128" y2="172">
		<stop  offset="0" style="stop-color:#909090"/>
		<stop  offset="1" style="stop-color:#404040"/>
	</linearGradient>
	<path id="Shadow_x5F_256" fill="url(#Shadow_x5F_256_1_)" d="M104,172H48c-6.625,0-12-5.373-12-12V96c0-6.627,5.375-12,12-12h56
		V172z M220,96v64c0,6.627-5.375,12-12,12h-56V84h56C214.625,84,220,89.373,220,96z"/>
</g>
<g id="Border">
	<path id="Border_x5F_256" fill="#FFFFFF" d="M216,96v64c0,4.418-3.582,8-8,8h-56V88h56C212.418,88,216,91.582,216,96z M104,168H48
		c-4.418,0-8-3.582-8-8V96c0-4.418,3.582-8,8-8h56V168z"/>
</g>
<g id="Old">
	<linearGradient id="Old_x5F_256_1_" gradientUnits="userSpaceOnUse" x1="76" y1="96" x2="76" y2="160">
		<stop  offset="0" style="stop-color:#FEEDEA"/>
		<stop  offset="0.48" style="stop-color:#FBD0CD"/>
		<stop  offset="0.52" style="stop-color:#FAC2BF"/>
		<stop  offset="1" style="stop-color:#F7A7A7"/>
	</linearGradient>
	<path id="Old_x5F_256" fill="url(#Old_x5F_256_1_)" d="M104,160H48V96h56V160z"/>
</g>
<g id="New">
	<linearGradient id="New_x5F_256_1_" gradientUnits="userSpaceOnUse" x1="180" y1="96" x2="180" y2="160">
		<stop  offset="0" style="stop-color:#DDE5F4"/>
		<stop  offset="0.48" style="stop-color:#B1C2E4"/>
		<stop  offset="0.52" style="stop-color:#9BB1DC"/>
		<stop  offset="1" style="stop-color:#7696CD"/>
	</linearGradient>
	<path id="New_x5F_256" fill="url(#New_x5F_256_1_)" d="M208,160h-56V96h56V160z"/>
</g>
</svg>
