<?xml version="1.0" encoding="utf-8"?>
<!-- Generator: Adobe Illustrator 16.0.0, SVG Export Plug-In . SVG Version: 6.00 Build 0)  -->
<!DOCTYPE svg PUBLIC "-//W3C//DTD SVG 1.1//EN" "http://www.w3.org/Graphics/SVG/1.1/DTD/svg11.dtd">
<svg version="1.1" xmlns="http://www.w3.org/2000/svg" xmlns:xlink="http://www.w3.org/1999/xlink" x="0px" y="0px" width="16px"
	 height="16px" viewBox="0 0 16 16" enable-background="new 0 0 16 16" xml:space="preserve">
<g id="Frame">
	<path id="Frame_x5F_16" fill="#838BC5" d="M9,1H7C6.873,1,6.746,1.024,6.629,1.071l-5,2C1.249,3.224,1,3.591,1,4v8
		c0,0.409,0.249,0.776,0.629,0.929l5,2C6.746,14.976,6.873,15,7,15h2c0.127,0,0.253-0.024,0.371-0.071l5-2
		C14.751,12.776,15,12.409,15,12V4c0-0.409-0.249-0.776-0.629-0.929l-5-2C9.253,1.024,9.127,1,9,1L9,1z"/>
</g>
<g id="FadeR">
	<linearGradient id="FadeR_x5F_16_1_" gradientUnits="userSpaceOnUse" x1="9" y1="8" x2="14" y2="8">
		<stop  offset="0" style="stop-color:#F2F2F2;stop-opacity:0.7"/>
		<stop  offset="1" style="stop-color:#F2F2F2;stop-opacity:0.3"/>
	</linearGradient>
	<path id="FadeR_x5F_16" fill="url(#FadeR_x5F_16_1_)" d="M14,4v8l-5,2V2L14,4z"/>
</g>
<g id="FadeL">
	<linearGradient id="FadeL_x5F_16_1_" gradientUnits="userSpaceOnUse" x1="2" y1="8" x2="7" y2="8">
		<stop  offset="0" style="stop-color:#F2F2F2;stop-opacity:0.3"/>
		<stop  offset="1" style="stop-color:#F2F2F2;stop-opacity:0.7"/>
	</linearGradient>
	<path id="FadeL_x5F_16" fill="url(#FadeL_x5F_16_1_)" d="M7,14l-5-2V4l5-2V14z"/>
</g>
<g id="Edge">
	<path id="Edge_x5F_16" opacity="0.3" fill="#F2F2F2" d="M9,2v12H7V2H9z"/>
</g>
<g id="PlateShadow">
	<linearGradient id="Shadow_x5F_16_1_" gradientUnits="userSpaceOnUse" x1="8" y1="5" x2="8" y2="11">
		<stop  offset="0" style="stop-color:#909090"/>
		<stop  offset="1" style="stop-color:#404040"/>
	</linearGradient>
	<path id="Shadow_x5F_16" fill="url(#Shadow_x5F_16_1_)" d="M7,11H5c-0.553,0-1-0.447-1-1V6c0-0.552,0.447-1,1-1h2V11z M12,6v4
		c0,0.553-0.447,1-1,1H9V5h2C11.553,5,12,5.448,12,6z"/>
</g>
<g id="Border">
</g>
<g id="Old">
	<linearGradient id="Old_x5F_16_1_" gradientUnits="userSpaceOnUse" x1="6" y1="6" x2="6" y2="10">
		<stop  offset="0" style="stop-color:#FEEDEA"/>
		<stop  offset="0.48" style="stop-color:#FBD0CD"/>
		<stop  offset="0.52" style="stop-color:#FAC2BF"/>
		<stop  offset="1" style="stop-color:#F7A7A7"/>
	</linearGradient>
	<path id="Old_x5F_16" fill="url(#Old_x5F_16_1_)" d="M7,10H5V6h2V10z"/>
</g>
<g id="New">
	<linearGradient id="New_x5F_16_1_" gradientUnits="userSpaceOnUse" x1="10" y1="6" x2="10" y2="10">
		<stop  offset="0" style="stop-color:#DDE5F4"/>
		<stop  offset="0.48" style="stop-color:#B1C2E4"/>
		<stop  offset="0.52" style="stop-color:#9BB1DC"/>
		<stop  offset="1" style="stop-color:#7696CD"/>
	</linearGradient>
	<path id="New_x5F_16" fill="url(#New_x5F_16_1_)" d="M11,10H9V6h2V10z"/>
</g>
</svg>
