<?xml version="1.0" encoding="utf-8"?>
<!-- Generator: Adobe Illustrator 16.0.0, SVG Export Plug-In . SVG Version: 6.00 Build 0)  -->
<!DOCTYPE svg PUBLIC "-//W3C//DTD SVG 1.1//EN" "http://www.w3.org/Graphics/SVG/1.1/DTD/svg11.dtd">
<svg version="1.1" xmlns="http://www.w3.org/2000/svg" xmlns:xlink="http://www.w3.org/1999/xlink" x="0px" y="0px" width="64px"
	 height="64px" viewBox="0 0 64 64" enable-background="new 0 0 64 64" xml:space="preserve">
<g id="Frame">
	<path id="Frame_x5F_64" fill="#838BC5" d="M29,3h-3c-0.167,0-0.332,0.042-0.479,0.122l-22,12C3.2,15.297,3,15.634,3,16v32
		c0,0.366,0.2,0.703,0.521,0.878l22,12C25.668,60.958,25.833,61,26,61h3c0.552,0,1-0.448,1-1V4C30,3.448,29.552,3,29,3L29,3z M38,3
		h-3c-0.552,0-1,0.448-1,1v56c0,0.552,0.448,1,1,1h3c0.167,0,0.332-0.042,0.479-0.122l22-12C60.8,48.703,61,48.366,61,48V16
		c0-0.366-0.2-0.703-0.521-0.878l-22-12C38.332,3.042,38.167,3,38,3L38,3z"/>
</g>
<g id="FadeR">
	<linearGradient id="FadeR_x5F_64_1_" gradientUnits="userSpaceOnUse" x1="38" y1="32" x2="60" y2="32">
		<stop  offset="0" style="stop-color:#F2F2F2;stop-opacity:0.7"/>
		<stop  offset="1" style="stop-color:#F2F2F2;stop-opacity:0.5"/>
	</linearGradient>
	<path id="FadeR_x5F_64" fill="url(#FadeR_x5F_64_1_)" d="M60,16v32L38,60V4L60,16z"/>
</g>
<g id="FadeL">
	<linearGradient id="FadeL_x5F_64_1_" gradientUnits="userSpaceOnUse" x1="4" y1="32" x2="26" y2="32">
		<stop  offset="0" style="stop-color:#F2F2F2;stop-opacity:0.5"/>
		<stop  offset="1" style="stop-color:#F2F2F2;stop-opacity:0.7"/>
	</linearGradient>
	<path id="FadeL_x5F_64" fill="url(#FadeL_x5F_64_1_)" d="M26,60L4,48V16L26,4V60z"/>
</g>
<g id="Edge">
	<path id="Edge_x5F_64" opacity="0.3" fill="#F2F2F2" d="M26,4h3v56h-3V4z M38,60h-3V4h3V60z"/>
</g>
<g id="PlateShadow">
	<linearGradient id="Shadow_x5F_64_1_" gradientUnits="userSpaceOnUse" x1="32" y1="21" x2="32" y2="43">
		<stop  offset="0" style="stop-color:#909090"/>
		<stop  offset="1" style="stop-color:#404040"/>
	</linearGradient>
	<path id="Shadow_x5F_64" fill="url(#Shadow_x5F_64_1_)" d="M26,43H12c-1.657,0-3-1.343-3-3V24c0-1.657,1.343-3,3-3h14V43z M55,24
		v16c0,1.657-1.343,3-3,3H38V21h14C53.657,21,55,22.343,55,24z"/>
</g>
<g id="Border">
	<path id="Border_x5F_64" fill="#FFFFFF" d="M54,24v16c0,1.104-0.896,2-2,2H38V22h14C53.104,22,54,22.896,54,24z M26,42H12
		c-1.104,0-2-0.896-2-2V24c0-1.104,0.896-2,2-2h14V42z"/>
</g>
<g id="Old">
	<linearGradient id="Old_x5F_64_1_" gradientUnits="userSpaceOnUse" x1="19" y1="24" x2="19" y2="40">
		<stop  offset="0" style="stop-color:#FEEDEA"/>
		<stop  offset="0.48" style="stop-color:#FBD0CD"/>
		<stop  offset="0.52" style="stop-color:#FAC2BF"/>
		<stop  offset="1" style="stop-color:#F7A7A7"/>
	</linearGradient>
	<path id="Old_x5F_64" fill="url(#Old_x5F_64_1_)" d="M26,40H12V24h14V40z"/>
</g>
<g id="New">
	<linearGradient id="New_x5F_64_1_" gradientUnits="userSpaceOnUse" x1="45" y1="24" x2="45" y2="40">
		<stop  offset="0" style="stop-color:#DDE5F4"/>
		<stop  offset="0.48" style="stop-color:#B1C2E4"/>
		<stop  offset="0.52" style="stop-color:#9BB1DC"/>
		<stop  offset="1" style="stop-color:#7696CD"/>
	</linearGradient>
	<path id="New_x5F_64" fill="url(#New_x5F_64_1_)" d="M52,40H38V24h14V40z"/>
</g>
</svg>
