<?xml version="1.0" encoding="utf-8"?>
<!-- Generator: Adobe Illustrator 16.0.0, SVG Export Plug-In . SVG Version: 6.00 Build 0)  -->
<!DOCTYPE svg PUBLIC "-//W3C//DTD SVG 1.1//EN" "http://www.w3.org/Graphics/SVG/1.1/DTD/svg11.dtd">
<svg version="1.1" xmlns="http://www.w3.org/2000/svg" xmlns:xlink="http://www.w3.org/1999/xlink" x="0px" y="0px" width="32px"
	 height="32px" viewBox="0 0 32 32" enable-background="new 0 0 32 32" xml:space="preserve">
<g id="Frame">
	<path id="Frame_x5F_32" fill="#838BC5" d="M20,2h-2c-0.553,0-1,0.448-1,1v26c0,0.553,0.447,1,1,1h2c0.17,0,0.337-0.043,0.485-0.126
		l9-5C29.803,24.698,30,24.363,30,24V8c0-0.363-0.197-0.698-0.515-0.874l-9-5C20.337,2.044,20.17,2,20,2L20,2z M14,2h-2
		c-0.17,0-0.337,0.043-0.486,0.126l-9,5C2.197,7.303,2,7.637,2,8v16c0,0.363,0.197,0.698,0.514,0.874l9,5
		C11.663,29.957,11.83,30,12,30h2c0.553,0,1-0.447,1-1V3C15,2.448,14.553,2,14,2L14,2z"/>
</g>
<g id="FadeR">
	<linearGradient id="FadeR_x5F_32_1_" gradientUnits="userSpaceOnUse" x1="20" y1="16" x2="29" y2="16">
		<stop  offset="0" style="stop-color:#F2F2F2;stop-opacity:0.7"/>
		<stop  offset="1" style="stop-color:#F2F2F2;stop-opacity:0.5"/>
	</linearGradient>
	<path id="FadeR_x5F_32" fill="url(#FadeR_x5F_32_1_)" d="M29,8v16l-9,5V3L29,8z"/>
</g>
<g id="FadeL">
	<linearGradient id="FadeL_x5F_32_1_" gradientUnits="userSpaceOnUse" x1="3" y1="16" x2="12" y2="16">
		<stop  offset="0" style="stop-color:#F2F2F2;stop-opacity:0.5"/>
		<stop  offset="1" style="stop-color:#F2F2F2;stop-opacity:0.7"/>
	</linearGradient>
	<path id="FadeL_x5F_32" fill="url(#FadeL_x5F_32_1_)" d="M12,29l-9-5V8l9-5V29z"/>
</g>
<g id="Edge">
	<path id="Edge_x5F_32" opacity="0.3" fill="#F2F2F2" d="M14,29h-2V3h2V29z M18,3h2v26h-2V3z"/>
</g>
<g id="PlateShadow">
	<linearGradient id="Shadow_x5F_32_1_" gradientUnits="userSpaceOnUse" x1="16" y1="10" x2="16" y2="22">
		<stop  offset="0" style="stop-color:#909090"/>
		<stop  offset="1" style="stop-color:#404040"/>
	</linearGradient>
	<path id="Shadow_x5F_32" fill="url(#Shadow_x5F_32_1_)" d="M27,12v8c0,1.103-0.897,2-2,2h-5V10h5C26.103,10,27,10.897,27,12z
		 M12,22H7c-1.104,0-2-0.897-2-2v-8c0-1.103,0.896-2,2-2h5V22z"/>
</g>
<g id="Border">
	<path id="Border_x5F_32" fill="#FFFFFF" d="M26,12v8c0,0.553-0.447,1-1,1h-5V11h5C25.553,11,26,11.448,26,12z M12,21H7
		c-0.553,0-1-0.447-1-1v-8c0-0.552,0.447-1,1-1h5V21z"/>
</g>
<g id="Old">
	<linearGradient id="Old_x5F_32_1_" gradientUnits="userSpaceOnUse" x1="9.5" y1="12" x2="9.5" y2="20">
		<stop  offset="0" style="stop-color:#FEEDEA"/>
		<stop  offset="0.48" style="stop-color:#FBD0CD"/>
		<stop  offset="0.52" style="stop-color:#FAC2BF"/>
		<stop  offset="1" style="stop-color:#F7A7A7"/>
	</linearGradient>
	<path id="Old_x5F_32" fill="url(#Old_x5F_32_1_)" d="M12,20H7v-8h5V20z"/>
</g>
<g id="New">
	<linearGradient id="New_x5F_32_1_" gradientUnits="userSpaceOnUse" x1="22.5" y1="12" x2="22.5" y2="20">
		<stop  offset="0" style="stop-color:#DDE5F4"/>
		<stop  offset="0.48" style="stop-color:#B1C2E4"/>
		<stop  offset="0.52" style="stop-color:#9BB1DC"/>
		<stop  offset="1" style="stop-color:#7696CD"/>
	</linearGradient>
	<path id="New_x5F_32" fill="url(#New_x5F_32_1_)" d="M25,12v8h-5v-8H25z"/>
</g>
</svg>
